HIERARCHY
ROOT Hips
{
	OFFSET 0.00000 0.00000 0.00000
	CHANNELS 6 Xposition Yposition Zposition Yrotation Zrotation Xrotation 
	JOINT Lumbar
	{
		OFFSET 0 0 0
		CHANNELS 3 Zrotation Xrotation Yrotation
		JOINT Neck
		{
			OFFSET 0.00 0.2701 0.00
			CHANNELS 3 Zrotation Xrotation Yrotation
			End Site
			{
				OFFSET 0.00 0.1379 0.00
			}
		}
		JOINT RightShoulder
		{
			OFFSET 0.0119 0.2289 0.1181
			CHANNELS 3 Zrotation Xrotation Yrotation
			JOINT RightElbow
			{
				OFFSET 0.00 -0.1475 0.00
				CHANNELS 2 Zrotation Yrotation
				JOINT RightWrist
				{
					OFFSET 0.00 -0.1605 0.00
					CHANNELS 2 Zrotation Xrotation
					End Site
					{
						OFFSET 0.0040 -0.1068 0.0006
					}
				}
			}
		}
		JOINT LeftShoulder
		{
			OFFSET 0.0119 0.2289 -0.1181
			CHANNELS 3 Zrotation Xrotation Yrotation
			JOINT LeftElbow
			{
				OFFSET 0.00 -0.1475 0.00
				CHANNELS 2 Zrotation Yrotation
				JOINT LeftWrist
				{
					OFFSET 0.00 -0.1605 0.00
					CHANNELS 2 Zrotation Xrotation
					End Site
					{
						OFFSET 0.0040 -0.1068 -0.0006
					}
				}
			}
		}
	}
	JOINT RightHip
	{
		OFFSET 0.0316 -0.0424 0.0458
		CHANNELS 3 Zrotation Xrotation Yrotation
		JOINT RightKnee
		{
			OFFSET 0.00 -0.2438 0.00
			CHANNELS 1 Zrotation
			JOINT RightAnkle
			{
				OFFSET 0.00 -0.2449 0.00
				CHANNELS 3 Zrotation Xrotation Yrotation
				End Site
				{
					OFFSET 0.1237 -0.0542 0.0051
				}
			}
		}
	}
	JOINT LeftHip
	{
		OFFSET 0.0316 -0.0424 -0.0458
		CHANNELS 3 Zrotation Xrotation Yrotation
		JOINT LeftKnee
		{
			OFFSET 0.00 -0.2438 0.00
			CHANNELS 1 Zrotation
			JOINT LeftAnkle
			{
				OFFSET 0.00 -0.2449 0.00
				CHANNELS 3 Zrotation Xrotation Yrotation
				End Site
				{
					OFFSET 0.1237 -0.0542 -0.0051
				}
			}
		}
	}
}
MOTION
Frames: 19
Frame Time: 0.02
-0.87075 -0.36117 0.11408 746.04969 23.27252 -6.64644 0.18156 4.71933 -7.1702 -34.09455 4.35659 -0.83079 -16.19187 -2.69571 31.70009 116.04181 85.80732 6.51137 1.42012 -14.66026 5.89892 -17.147 122.56315 -97.31795 11.89621 -0.25137 52.33773 2.86439 -16.62831 -50.73465 -13.45267 -3.00089 -2.51953 74.82246 -7.44002 29.44512 -75.07276 -20.88149 2.55696 2.6171
-0.87081 -0.36121 0.11409 746.06997 23.33029 -6.65922 0.2225 4.70357 -7.13788 -34.04023 4.41746 -0.83079 -16.16881 -2.68232 31.69278 116.03253 86.51739 6.51919 1.19828 -14.46269 6.29273 -17.35399 122.58575 -95.86166 11.40338 0.05163 52.27816 2.86122 -16.62103 -50.71825 -13.46134 -3.00264 -2.51969 74.76373 -7.43307 29.42805 -75.05866 -20.87673 2.56008 2.61925
-0.87089 -0.36126 0.11411 746.08898 23.37249 -6.66969 0.2673 4.68284 -7.10024 -33.98512 4.48837 -0.83079 -16.11464 -2.73443 31.71978 116.03338 87.36999 6.45723 0.72226 -14.17288 6.93518 -17.69425 122.60639 -93.41333 10.56835 0.54482 52.23436 2.8397 -16.64833 -50.70605 -13.46838 -3.00137 -2.51759 74.72081 -7.42147 29.41442 -75.02836 -20.86762 2.56504 2.62247
-0.87095 -0.36131 0.11412 746.10871 23.41987 -6.68128 0.3123 4.66438 -7.06548 -33.93041 4.55219 -0.83079 -16.07582 -2.75263 31.73437 116.02671 88.13334 6.40845 0.38587 -13.93883 7.42623 -17.95869 122.62839 -91.50785 9.93235 0.91385 52.18596 2.82758 -16.6573 -50.69284 -13.47607 -3.00155 -2.51665 74.67238 -7.41299 29.3998 -75.00417 -20.86077 2.56907 2.62512
-0.87102 -0.36136 0.11414 746.12639 23.46883 -6.69162 0.35638 4.64495 -7.0289 -33.87142 4.62744 -0.83079 -16.03436 -2.78244 31.73469 116.03215 89.00478 6.4379 -0.04024 -13.65193 8.06597 -18.2802 122.65108 -89.24507 9.1306 1.42949 52.13573 2.81149 -16.6755 -50.67923 -13.48345 -3.00107 -2.51493 74.62573 -7.40013 29.38219 -74.98719 -20.8526 2.5738 2.62827
-0.87109 -0.3614 0.11416 746.14846 23.51289 -6.70432 0.40068 4.62668 -6.99474 -33.82221 4.68119 -0.83079 -15.98956 -2.80666 31.77331 116.015 89.67842 6.28841 -0.34747 -13.44959 8.46433 -18.51922 122.67042 -87.47452 8.58098 1.69526 52.0901 2.79912 -16.68338 -50.66632 -13.49132 -3.00137 -2.51435 74.57628 -7.39525 29.37189 -74.95086 -20.84618 2.5774 2.6306
-0.87113 -0.36142 0.11417 746.18457 23.55202 -6.72486 0.44226 4.61327 -6.9692 -33.80685 4.67057 -0.83079 -15.94938 -2.78955 31.90758 115.93141 89.8309 5.65568 -0.22626 -13.52199 8.08352 -18.47334 122.68627 -87.36191 8.87389 1.15563 52.04714 2.80114 -16.65464 -50.65213 -13.50141 -3.00486 -2.5177 74.50863 -7.41445 29.38013 -74.86184 -20.8458 2.57725 2.63024
-0.87118 -0.36143 0.11417 746.22503 23.58679 -6.74787 0.48333 4.60125 -6.94618 -33.80077 4.63832 -0.83079 -15.90561 -2.76693 32.07943 115.82512 89.76998 4.84714 0.01579 -13.67892 7.4614 -18.34457 122.69763 -87.76564 9.42002 0.37076 52.0081 2.80742 -16.61476 -50.63841 -13.51205 -3.00924 -2.52223 74.4376 -7.44167 29.39578 -74.75425 -20.84733 2.5759 2.62901
-0.87122 -0.36144 0.11418 746.26272 23.62151 -6.76943 0.52509 4.58846 -6.92152 -33.78682 4.6175 -0.83079 -15.85895 -2.75424 32.23556 115.73015 89.76539 4.12206 0.17547 -13.78403 6.98588 -18.27128 122.70712 -87.89139 9.80599 -0.25446 51.96988 2.81204 -16.57968 -50.62538 -13.52223 -3.01311 -2.5261 74.37098 -7.46466 29.40867 -74.65685 -20.84791 2.57517 2.62823
-0.87127 -0.36145 0.11418 746.30383 23.66439 -6.7923 0.56509 4.57606 -6.89859 -33.78834 4.59024 -0.83079 -15.82979 -2.71314 32.38796 115.63094 89.93043 3.37627 0.43932 -13.94146 6.36588 -18.12973 122.73265 -88.16225 10.36598 -1.07254 51.92119 2.81525 -16.54587 -50.6087 -13.53326 -3.01739 -2.53048 74.29258 -7.49001 29.41929 -74.55125 -20.84866 2.57417 2.62723
-0.87131 -0.36146 0.11419 746.33871 23.68914 -6.81301 0.60869 4.56321 -6.87296 -33.75969 4.57119 -0.83079 -15.76443 -2.72816 32.55559 115.53547 89.69835 2.63683 0.52197 -14.01259 5.98263 -18.10595 122.72426 -88.27093 10.63381 -1.55479 51.89526 2.82216 -16.50758 -50.59976 -13.5426 -3.02099 -2.53404 74.23814 -7.51235 29.43612 -74.45888 -20.84957 2.57345 2.6265
-0.87131 -0.36148 0.11418 746.35678 23.6681 -6.82764 0.6608 4.54916 -6.83731 -33.64713 4.57941 -0.83079 -15.59398 -2.90683 32.76436 115.45217 88.34547 1.92353 0.04356 -13.81319 6.34269 -18.45284 122.61845 -87.77103 9.98505 -1.00575 51.92869 2.84274 -16.44866 -50.61117 -13.54796 -3.02323 -2.53559 74.2461 -7.52497 29.47022 -74.40469 -20.85052 2.57362 2.62665
-0.8713 -0.36151 0.11418 746.36815 23.62845 -6.83993 0.71674 4.53456 -6.79926 -33.50357 4.59677 -0.83079 -15.38859 -3.14033 32.9853 115.37399 86.61354 1.2295 -0.61386 -13.5268 6.94223 -18.91568 122.47956 -87.10247 9.04437 -0.11948 51.98527 2.86625 -16.38735 -50.63049 -13.55148 -3.02464 -2.53619 74.27905 -7.53419 29.50994 -74.36509 -20.85157 2.57413 2.62711
-0.8713 -0.36153 0.11417 746.38166 23.59532 -6.85295 0.77195 4.51996 -6.76359 -33.37312 4.61022 -0.83079 -15.20319 -3.34377 33.19522 115.29597 85.10489 0.54954 -1.16823 -13.28806 7.41119 -19.30835 122.35901 -86.53728 8.27014 0.58272 52.0328 2.88546 -16.33437 -50.64679 -13.5553 -3.02596 -2.53688 74.30346 -7.54466 29.5458 -74.32076 -20.85257 2.57459 2.62749
-0.8713 -0.36155 0.11417 746.39918 23.57021 -6.86742 0.82311 4.50641 -6.72253 -33.24716 4.62161 -0.83079 -14.99993 -3.56938 33.43019 115.20697 83.3747 -0.23311 -1.81202 -13.01725 7.96457 -19.7723 122.22437 -85.87236 7.36097 1.40683 52.07421 2.91695 -16.25109 -50.66077 -13.56132 -3.02925 -2.53902 74.31587 -7.55673 29.58744 -74.26765 -20.85368 2.5746 2.6276
-0.87129 -0.36157 0.11416 746.40666 23.52401 -6.87834 0.88333 4.49057 -6.69216 -33.10431 4.64011 -0.83079 -14.82606 -3.76114 33.61468 115.14194 82.0172 -0.79483 -2.31126 -12.79234 8.40097 -20.11599 122.11123 -85.37391 6.66144 2.05993 52.13391 2.92398 -16.22968 -50.68133 -13.56241 -3.02827 -2.53794 74.35924 -7.56448 29.61828 -74.23667 -20.85455 2.57563 2.62836
-0.87127 -0.36158 0.11414 746.38852 23.42431 -6.8794 0.97029 4.46834 -6.69134 -32.92282 4.67308 -0.83079 -14.738 -3.85278 33.66286 115.14564 81.79604 -0.75168 -2.38975 -12.70756 8.46738 -20.10336 122.06608 -85.32558 6.60019 2.16298 52.23772 2.85861 -16.38676 -50.71904 -13.54969 -3.0154 -2.52793 74.4821 -7.56183 29.61802 -74.2623 -20.85483 2.5795 2.63091
-0.87124 -0.36159 0.11411 746.36041 23.30397 -6.87707 1.06579 4.44388 -6.70146 -32.72526 4.71361 -0.83079 -14.68123 -3.90752 33.65865 115.17269 81.96175 -0.48599 -2.31432 -12.6727 8.40761 -19.96574 122.04361 -85.45502 6.75999 2.08321 52.3593 2.76924 -16.605 -50.76293 -13.53219 -2.99832 -2.51477 74.63531 -7.5548 29.60666 -74.30997 -20.85486 2.58437 2.63409
-0.87122 -0.36159 0.11409 746.33654 23.19298 -6.87666 1.15564 4.42056 -6.70694 -32.53473 4.75265 -0.83079 -14.61306 -3.97434 33.67407 115.18668 81.94148 -0.32084 -2.29374 -12.62019 8.39818 -19.88253 122.01046 -85.53719 6.82647 2.08458 52.47316 2.69357 -16.79061 -50.80334 -13.51732 -2.98336 -2.50324 74.77451 -7.54924 29.60029 -74.34824 -20.85494 2.58874 2.63695
